<svg xmlns="http://www.w3.org/2000/svg" id="graphic" width="878" height="522"><g id="facets"><g class="facet" transform="translate(69,10)" opacity="1"><rect class="facet-title-bg" height="0" fill="#eeeeee" x="0" y="0" clip-path="url(#facet-clip-0)"/><text class="facet-title" y="0" font-size="17.5px" font-weight="bold" dx="0" x="0" fill="#333333" clip-path="url(#facet-clip-0)" opacity="0"/><g class="plot"><clipPath class="facet-clip" id="facet-clip-0"><rect width="813" height="485" transform="translate(-7,-21)"/></clipPath><g class="bg"><rect fill="none" width="799" height="443" style="fill: none;"/></g><g class="interaction"><g class="series"/><g class="series"/><g class="series"/></g><g class="axes"><g class="y axis" fill="none" font-size="10" font-family="sans-serif" text-anchor="end" style="font-family: &quot;Source Sans Pro&quot;;"><path class="domain" stroke="#eeeeee" d="M0.5,443.5V0.5" stroke-dasharray="0" style="visibility: hidden;"/><g class="tick" opacity="1" transform="translate(0,443.5)" style="visibility: visible;"><line stroke="#eeeeee" x2="799" stroke-dasharray="0"/><text fill="rgb(153, 153, 153)" x="-3" dy="0.33em" opacity="1" text-anchor="end" font-size="12">$0</text></g><g class="tick" opacity="1" transform="translate(0,399.2)" style="visibility: visible;"><line stroke="#eeeeee" x2="799" stroke-dasharray="0"/><text fill="rgb(153, 153, 153)" x="-3" dy="0.33em" opacity="1" text-anchor="end" font-size="12">$5,000,000</text></g><g class="tick" opacity="1" transform="translate(0,354.9)" style="visibility: visible;"><line stroke="#eeeeee" x2="799" stroke-dasharray="0"/><text fill="rgb(153, 153, 153)" x="-3" dy="0.33em" opacity="1" text-anchor="end" font-size="12">$10,000,000</text></g><g class="tick" opacity="1" transform="translate(0,310.6)" style="visibility: visible;"><line stroke="#eeeeee" x2="799" stroke-dasharray="0"/><text fill="rgb(153, 153, 153)" x="-3" dy="0.33em" opacity="1" text-anchor="end" font-size="12">$15,000,000</text></g><g class="tick" opacity="1" transform="translate(0,266.29999999999995)" style="visibility: visible;"><line stroke="#eeeeee" x2="799" stroke-dasharray="0"/><text fill="rgb(153, 153, 153)" x="-3" dy="0.33em" opacity="1" text-anchor="end" font-size="12">$20,000,000</text></g><g class="tick" opacity="1" transform="translate(0,222)" style="visibility: visible;"><line stroke="#eeeeee" x2="799" stroke-dasharray="0"/><text fill="rgb(153, 153, 153)" x="-3" dy="0.33em" opacity="1" text-anchor="end" font-size="12">$25,000,000</text></g><g class="tick" opacity="1" transform="translate(0,177.7)" style="visibility: visible;"><line stroke="#eeeeee" x2="799" stroke-dasharray="0"/><text fill="rgb(153, 153, 153)" x="-3" dy="0.33em" opacity="1" text-anchor="end" font-size="12">$30,000,000</text></g><g class="tick" opacity="1" transform="translate(0,133.40000000000003)" style="visibility: visible;"><line stroke="#eeeeee" x2="799" stroke-dasharray="0"/><text fill="rgb(153, 153, 153)" x="-3" dy="0.33em" opacity="1" text-anchor="end" font-size="12">$35,000,000</text></g><g class="tick" opacity="1" transform="translate(0,89.09999999999997)" style="visibility: visible;"><line stroke="#eeeeee" x2="799" stroke-dasharray="0"/><text fill="rgb(153, 153, 153)" x="-3" dy="0.33em" opacity="1" text-anchor="end" font-size="12">$40,000,000</text></g><g class="tick" opacity="1" transform="translate(0,44.80000000000001)" style="visibility: visible;"><line stroke="#eeeeee" x2="799" stroke-dasharray="0"/><text fill="rgb(153, 153, 153)" x="-3" dy="0.33em" opacity="1" text-anchor="end" font-size="12">$45,000,000</text></g><g class="tick" opacity="1" transform="translate(0,0.5)" style="visibility: visible;"><line stroke="#eeeeee" x2="799" stroke-dasharray="0"/><text fill="rgb(153, 153, 153)" x="-3" dy="0.33em" opacity="1" text-anchor="end" font-size="12">$50,000,000</text></g></g><text class="y axis-label" transform="rotate(-90) translate(-221.5,-47)" fill="#999999" text-anchor="middle" dominant-baseline="middle" font-size="12">Revenue</text><g class="x axis" transform="translate(0,443)" fill="none" font-size="10" font-family="sans-serif" text-anchor="middle" style="font-family: &quot;Source Sans Pro&quot;;"><path class="domain" stroke="#eeeeee" d="M0.5,0.5H799.5" stroke-dasharray="0" style="visibility: hidden;"/><g class="tick" opacity="1" transform="translate(86.16666666666669,0)"><line stroke="#eeeeee" y2="-443" stroke-dasharray="0"/><text fill="rgb(153, 153, 153)" y="3" dy="-9" opacity="1" dominant-baseline="central" font-size="12" transform="translate(0, 15) rotate(-45)" dx="5" style="text-anchor: end; visibility: visible;">2013</text></g><g class="tick" opacity="1" transform="translate(242.83333333333334,0)"><line stroke="#eeeeee" y2="-443" stroke-dasharray="0"/><text fill="rgb(153, 153, 153)" y="3" dy="-9" opacity="1" dominant-baseline="central" font-size="12" transform="translate(0, 15) rotate(-45)" dx="5" style="text-anchor: end; visibility: visible;">2014</text></g><g class="tick" opacity="1" transform="translate(399.5,0)"><line stroke="#eeeeee" y2="-443" stroke-dasharray="0"/><text fill="rgb(153, 153, 153)" y="3" dy="-9" opacity="1" dominant-baseline="central" font-size="12" transform="translate(0, 15) rotate(-45)" dx="5" style="text-anchor: end; visibility: visible;">2015</text></g><g class="tick" opacity="1" transform="translate(556.1666666666667,0)"><line stroke="#eeeeee" y2="-443" stroke-dasharray="0"/><text fill="rgb(153, 153, 153)" y="3" dy="-9" opacity="1" dominant-baseline="central" font-size="12" transform="translate(0, 15) rotate(-45)" dx="5" style="text-anchor: end; visibility: visible;">2016</text></g><g class="tick" opacity="1" transform="translate(712.8333333333333,0)"><line stroke="#eeeeee" y2="-443" stroke-dasharray="0"/><text fill="rgb(153, 153, 153)" y="3" dy="-9" opacity="1" dominant-baseline="central" font-size="12" transform="translate(0, 15) rotate(-45)" dx="5" style="text-anchor: end; visibility: visible;">2017</text></g></g><text class="x axis-label" transform="translate(399.5,490)" fill="#999999" text-anchor="middle" dominant-baseline="middle" font-size="12">Year</text></g></g></g></g><g class="annotations below"><g class="axis-highlights" transform="translate(69, 10)" style="opacity: 1;"/></g><g id="areas"><g class="series" pointer-events="none"><path class="area" transform="translate(69,10)" fill-opacity="0" fill="#1D6996" clip-path="url(#clip-0-0)" d="M15.666666666666686,3.5439999999999827C67.88888888888891,47.40099999999999,120.11111111111111,91.258,172.33333333333334,110.75C224.55555555555557,130.242,276.77777777777777,130.09433333333334,329,139.988C381.22222222222223,149.88166666666666,433.44444444444446,150.02933333333334,485.6666666666667,170.11200000000002C537.8888888888889,190.1946666666667,590.1111111111111,225.33933333333337,642.3333333333333,260.48400000000004L642.3333333333333,260.48400000000004C590.1111111111111,225.33933333333337,537.8888888888889,190.1946666666667,485.6666666666667,170.11200000000002C433.44444444444446,150.02933333333334,381.22222222222223,149.88166666666666,329,139.988C276.77777777777777,130.09433333333334,224.55555555555557,130.242,172.33333333333334,110.75C120.11111111111111,91.258,67.88888888888891,47.40099999999999,15.666666666666686,3.5439999999999827Z"/></g><g class="series" pointer-events="none"><path class="area" transform="translate(69,10)" fill-opacity="0" fill="#EDAD08" clip-path="url(#clip-0-1)" d="M15.666666666666686,219.728C67.88888888888891,207.98850000000002,120.11111111111111,196.24900000000002,172.33333333333334,186.94600000000003C224.55555555555557,177.64300000000003,276.77777777777777,171.33911000000003,329,163.91000000000003C381.22222222222223,156.48089000000002,433.44444444444446,148.42567333333332,485.6666666666667,142.37133999999998C537.8888888888889,136.31700666666663,590.1111111111111,131.95050333333333,642.3333333333333,127.584L642.3333333333333,127.584C590.1111111111111,131.95050333333333,537.8888888888889,136.31700666666663,485.6666666666667,142.37133999999998C433.44444444444446,148.42567333333332,381.22222222222223,156.48089000000002,329,163.91000000000003C276.77777777777777,171.33911000000003,224.55555555555557,177.64300000000003,172.33333333333334,186.94600000000003C120.11111111111111,196.24900000000002,67.88888888888891,207.98850000000002,15.666666666666686,219.728Z"/></g><g class="series" pointer-events="none"><path class="area" transform="translate(69,10)" fill-opacity="0" fill="#73AF48" clip-path="url(#clip-0-2)" d="M15.666666666666686,180.74400000000003C67.88888888888891,221.05700000000002,120.11111111111111,261.37,172.33333333333334,261.37C224.55555555555557,261.37,276.77777777777777,257.0920966666667,329,255.168C381.22222222222223,253.24390333333335,433.44444444444446,251.89275333333336,485.6666666666667,249.82542C537.8888888888889,247.75808666666669,590.1111111111111,245.26104333333333,642.3333333333333,242.76399999999998L642.3333333333333,242.76399999999998C590.1111111111111,245.26104333333333,537.8888888888889,247.75808666666669,485.6666666666667,249.82542C433.44444444444446,251.89275333333336,381.22222222222223,253.24390333333335,329,255.168C276.77777777777777,257.0920966666667,224.55555555555557,261.37,172.33333333333334,261.37C120.11111111111111,261.37,67.88888888888891,221.05700000000002,15.666666666666686,180.74400000000003Z"/></g></g><g id="lines"><g class="series"><clipPath id="clip-0-0"><rect width="0" y="-10" height="463"/></clipPath><path class="line" opacity="1" fill="none" stroke="#1D6996" stroke-width="2" transform="translate(69,10)" clip-path="url(#clip-0-0)" d="M15.666666666666686,3.5439999999999827C67.88888888888891,47.40099999999999,120.11111111111111,91.258,172.33333333333334,110.75C224.55555555555557,130.242,276.77777777777777,130.09433333333334,329,139.988C381.22222222222223,149.88166666666666,433.44444444444446,150.02933333333334,485.6666666666667,170.11200000000002C537.8888888888889,190.1946666666667,590.1111111111111,225.33933333333337,642.3333333333333,260.48400000000004"/><text class="label" font-size="11" alignment-baseline="middle" opacity="0" x="5" fill="#1D6996" transform="translate(711.3333333333333,270.48400000000004)"/></g><g class="series"><clipPath id="clip-0-1"><rect width="0" y="-10" height="463"/></clipPath><path class="line" opacity="1" fill="none" stroke="#EDAD08" stroke-width="2" transform="translate(69,10)" clip-path="url(#clip-0-1)" d="M15.666666666666686,219.728C67.88888888888891,207.98850000000002,120.11111111111111,196.24900000000002,172.33333333333334,186.94600000000003C224.55555555555557,177.64300000000003,276.77777777777777,171.33911000000003,329,163.91000000000003C381.22222222222223,156.48089000000002,433.44444444444446,148.42567333333332,485.6666666666667,142.37133999999998C537.8888888888889,136.31700666666663,590.1111111111111,131.95050333333333,642.3333333333333,127.584"/><text class="label" font-size="11" alignment-baseline="middle" opacity="0" x="5" fill="#EDAD08" transform="translate(711.3333333333333,137.584)"/></g><g class="series"><clipPath id="clip-0-2"><rect width="0" y="-10" height="463"/></clipPath><path class="line" opacity="1" fill="none" stroke="#73AF48" stroke-width="2" transform="translate(69,10)" clip-path="url(#clip-0-2)" d="M15.666666666666686,180.74400000000003C67.88888888888891,221.05700000000002,120.11111111111111,261.37,172.33333333333334,261.37C224.55555555555557,261.37,276.77777777777777,257.0920966666667,329,255.168C381.22222222222223,253.24390333333335,433.44444444444446,251.89275333333336,485.6666666666667,249.82542C537.8888888888889,247.75808666666669,590.1111111111111,245.26104333333333,642.3333333333333,242.76399999999998"/><text class="label" font-size="11" alignment-baseline="middle" opacity="0" x="5" fill="#73AF48" transform="translate(711.3333333333333,252.76399999999998)"/></g></g><g id="data-points"><g class="series" transform="translate(69,10)"><path class="data-point" data-type="column" opacity="0.9" fill="#1D6996" d="M15.666666666666686,3.5439999999999827L62.666666666666686,3.5439999999999827L62.666666666666686,443L15.666666666666686,443Z" transform="translate(0, 0)" id="point-0-0"/><path class="data-point" data-type="column" opacity="0.9" fill="#1D6996" d="M172.33333333333334,110.75L219.33333333333334,110.75L219.33333333333334,443L172.33333333333334,443Z" transform="translate(0, 0)" id="point-0-1"/><path class="data-point" data-type="column" opacity="0.9" fill="#1D6996" d="M329,139.988L376,139.988L376,443L329,443Z" transform="translate(0, 0)" id="point-0-2"/><path class="data-point" data-type="column" opacity="0.9" fill="#1D6996" d="M485.6666666666667,170.11200000000002L532.6666666666667,170.11200000000002L532.6666666666667,443L485.6666666666667,443Z" transform="translate(0, 0)" id="point-0-3"/><path class="data-point" data-type="column" opacity="0.9" fill="#1D6996" d="M642.3333333333333,260.48400000000004L689.3333333333333,260.48400000000004L689.3333333333333,443L642.3333333333333,443Z" transform="translate(0, 0)" id="point-0-4"/></g><g class="series" transform="translate(69,10)"><path class="data-point" data-type="column" opacity="0.9" fill="#EDAD08" d="M62.666666666666686,219.728L109.66666666666669,219.728L109.66666666666669,443L62.666666666666686,443Z" transform="translate(0, 0)" id="point-1-0"/><path class="data-point" data-type="column" opacity="0.9" fill="#EDAD08" d="M219.33333333333334,186.94600000000003L266.33333333333337,186.94600000000003L266.33333333333337,443L219.33333333333334,443Z" transform="translate(0, 0)" id="point-1-1"/><path class="data-point" data-type="column" opacity="0.9" fill="#EDAD08" d="M376,163.91000000000003L423,163.91000000000003L423,443L376,443Z" transform="translate(0, 0)" id="point-1-2"/><path class="data-point" data-type="column" opacity="0.9" fill="#EDAD08" d="M532.6666666666667,142.37133999999998L579.6666666666667,142.37133999999998L579.6666666666667,443L532.6666666666667,443Z" transform="translate(0, 0)" id="point-1-3"/><path class="data-point" data-type="column" opacity="0.9" fill="#EDAD08" d="M689.3333333333333,127.584L736.3333333333333,127.584L736.3333333333333,443L689.3333333333333,443Z" transform="translate(0, 0)" id="point-1-4"/></g><g class="series" transform="translate(69,10)"><path class="data-point" data-type="column" opacity="0.9" fill="#73AF48" d="M109.66666666666669,180.74400000000003L156.66666666666669,180.74400000000003L156.66666666666669,443L109.66666666666669,443Z" transform="translate(0, 0)" id="point-2-0"/><path class="data-point" data-type="column" opacity="0.9" fill="#73AF48" d="M266.33333333333337,261.37L313.33333333333337,261.37L313.33333333333337,443L266.33333333333337,443Z" transform="translate(0, 0)" id="point-2-1"/><path class="data-point" data-type="column" opacity="0.9" fill="#73AF48" d="M423,255.168L470,255.168L470,443L423,443Z" transform="translate(0, 0)" id="point-2-2"/><path class="data-point" data-type="column" opacity="0.9" fill="#73AF48" d="M579.6666666666667,249.82542L626.6666666666667,249.82542L626.6666666666667,443L579.6666666666667,443Z" transform="translate(0, 0)" id="point-2-3"/><path class="data-point" data-type="column" opacity="0.9" fill="#73AF48" d="M736.3333333333333,242.76399999999998L783.3333333333333,242.76399999999998L783.3333333333333,443L736.3333333333333,443Z" transform="translate(0, 0)" id="point-2-4"/></g></g><g id="data-labels"/><g class="annotations above"><g class="axis-highlights" transform="translate(69, 10)" style="opacity: 1;"/></g></svg>