<?xml version="1.0" encoding="utf-8"?>
<!-- Generator: Adobe Illustrator 23.0.4, SVG Export Plug-In . SVG Version: 6.00 Build 0)  -->
<svg version="1.1" id="graphic" xmlns="http://www.w3.org/2000/svg" xmlns:xlink="http://www.w3.org/1999/xlink" x="0px" y="0px"
	 viewBox="0 0 878 522" style="enable-background:new 0 0 878 522;" xml:space="preserve">
<style type="text/css">
	.st0{display:none;}
	.st1{display:inline;}
	.st2{display:inline;clip-path:url(#SVGID_2_);fill:#EEEEEE;}
	.st3{fill:none;}
	.st4{display:none;fill:none;stroke:#EEEEEE;stroke-dasharray:0;}
	.st5{fill:#999999;}
	.st6{font-family:'ArialMT';}
	.st7{font-size:12px;}
	.st8{enable-background:new    ;}
	.st9{letter-spacing:32;}
	.st10{fill:none;stroke:#EEEEEE;stroke-dasharray:0;}
	.st11{display:none;fill:#999999;enable-background:new    ;}
	.st12{font-family:'Helvetica';}
	.st13{font-size:20px;}
	.st14{clip-path:url(#SVGID_6_);fill:#1D6996;fill-opacity:0;}
	.st15{clip-path:url(#SVGID_8_);fill:#EDAD08;fill-opacity:0;}
	.st16{clip-path:url(#SVGID_10_);fill:#73AF48;fill-opacity:0;}
	.st17{clip-path:url(#SVGID_12_);fill:none;stroke:#1D6996;stroke-width:2;}
	.st18{clip-path:url(#SVGID_14_);fill:none;stroke:#EDAD08;stroke-width:2;}
	.st19{opacity:0.9;fill:#1D6996;enable-background:new    ;}
	.st20{opacity:0.9;fill:#EDAD08;enable-background:new    ;}
	.st21{opacity:0.9;fill:#73AF48;enable-background:new    ;}
</style>
<g transform="translate(69,10)">
	<g class="st0">
		<defs>
			<rect id="SVGID_1_" x="-7" y="-21" width="813" height="485"/>
		</defs>
		<clipPath id="SVGID_2_" class="st1">
			<use xlink:href="#SVGID_1_"  style="overflow:visible;"/>
		</clipPath>
		<polygon class="st2" points="0,0 0,0 0,0 		"/>
	</g>
	<g>
		<defs>
			<rect id="SVGID_3_" x="-7" y="-21" width="813" height="485"/>
		</defs>
		<clipPath id="SVGID_4_">
			<use xlink:href="#SVGID_3_"  style="overflow:visible;"/>
		</clipPath>
	</g>
	<g>
		<rect class="st3" width="799" height="443"/>
	</g>
	<g>
		<path class="st4" d="M1.4,443.5V0.5"/>
		<g transform="translate(0,443.5)">
			<text transform="matrix(1 0 0 1 -25.8213 2.0653)" class="st5 st6 st7">0</text>
		</g>
		<g transform="translate(0,354.9)">
			<text transform="matrix(1 0 0 1 -68.785 3.96)" class="st8"><tspan x="0" y="0" class="st5 st6 st7 st9">	</tspan><tspan x="36" y="0" class="st5 st6 st7"> 10</tspan></text>
		</g>
		<g transform="translate(0,266.29999999999995)">
			<text transform="matrix(1 0 0 1 -68.785 3.96)" class="st8"><tspan x="0" y="0" class="st5 st6 st7 st9">	</tspan><tspan x="36" y="0" class="st5 st6 st7"> 20</tspan></text>
		</g>
		<g transform="translate(0,177.7)">
			<text transform="matrix(1 0 0 1 -68.785 3.96)" class="st8"><tspan x="0" y="0" class="st5 st6 st7 st9">	</tspan><tspan x="36" y="0" class="st5 st6 st7"> 30</tspan></text>
		</g>
		<g transform="translate(0,89.09999999999997)">
			<text transform="matrix(1 0 0 1 -68.785 3.96)" class="st8"><tspan x="0" y="0" class="st5 st6 st7 st9">	</tspan><tspan x="36" y="0" class="st5 st6 st7"> 40</tspan></text>
		</g>
		<g transform="translate(0,0.5)">
			<line class="st10" x1="0.9" y1="0" x2="799.9" y2="0"/>
			<text transform="matrix(1 0 0 1 -68.785 3.96)" class="st5 st6 st7">$50 million</text>
		</g>
	</g>
	<path class="st4" d="M1.4,443.5h799"/>
	<g transform="translate(86.16666666666669,0)">
		<line class="st10" x1="0.9" y1="443" x2="0.9" y2="0"/>
		<text transform="matrix(0.9997 2.560389e-02 -2.560389e-02 0.9997 -28.422 463.7896)" class="st5 st6 st7">2013</text>
	</g>
	<g transform="translate(242.83333333333334,0)">
		<line class="st10" x1="0.9" y1="443" x2="0.9" y2="0"/>
		<text transform="matrix(1 -5.216372e-03 5.216372e-03 1 -28.3279 464.2018)" class="st5 st6 st7">2014</text>
	</g>
	<g transform="translate(399.5,0)">
		<line class="st10" x1="0.9" y1="443" x2="0.9" y2="0"/>
		<text transform="matrix(0.9999 1.098755e-02 -1.098755e-02 0.9999 -28.379 463.9852)" class="st5 st6 st7">2015</text>
	</g>
	<g transform="translate(556.1666666666667,0)">
		<line class="st10" x1="0.9" y1="443" x2="0.9" y2="0"/>
		<text transform="matrix(1 -1.314038e-03 1.314038e-03 1 -28.3337 464.1576)" class="st5 st6 st7">2016</text>
	</g>
	<g transform="translate(712.8333333333333,0)">
		<line class="st10" x1="0.9" y1="443" x2="0.9" y2="0"/>
		<text transform="matrix(1 -9.168549e-03 9.168549e-03 1 -27.9413 461.394)" class="st5 st6 st7">2017</text>
	</g>
	<text transform="matrix(1 0 0 1 388.3243 490)" class="st11 st6 st7">Year</text>
	<text transform="matrix(1 0 0 1 313.9834 10.2998)" class="st12 st13">The old guard of giants tumble”</text>
</g>
<g>
	<g transform="translate(69, 10)">
	</g>
</g>
<g id="areas">
	<g pointer-events="none" class="st0">
		<g class="st1">
			<defs>
				<rect id="SVGID_5_" x="69" width="0" height="463"/>
			</defs>
			<clipPath id="SVGID_6_">
				<use xlink:href="#SVGID_5_"  style="overflow:visible;"/>
			</clipPath>
			<path class="st14" d="M84.7,13.5c52.2,43.9,104.4,87.7,156.7,107.2S345.8,140.1,398,150c52.2,9.9,104.4,10,156.7,30.1
				c52.2,20.1,104.4,55.2,156.7,90.4l0,0c-52.2-35.1-104.4-70.3-156.7-90.4C502.4,160,450.2,159.9,398,150
				c-52.2-9.9-104.4-9.7-156.7-29.2S136.9,57.4,84.7,13.5z"/>
		</g>
	</g>
	<g pointer-events="none">
		<g>
			<defs>
				<rect id="SVGID_7_" x="69" width="0" height="463"/>
			</defs>
			<clipPath id="SVGID_8_">
				<use xlink:href="#SVGID_7_"  style="overflow:visible;"/>
			</clipPath>
			<path class="st15" d="M84.7,229.7c52.2-11.7,104.4-23.5,156.7-32.8s104.4-15.6,156.7-23s104.4-15.5,156.7-21.5
				c52.2-6.1,104.4-10.4,156.7-14.8l0,0c-52.2,4.4-104.4,8.7-156.7,14.8c-52.2,6.1-104.4,14.1-156.7,21.5s-104.4,13.7-156.7,23
				S136.9,218,84.7,229.7z"/>
		</g>
	</g>
	<g pointer-events="none">
		<g>
			<defs>
				<rect id="SVGID_9_" x="69" width="0" height="463"/>
			</defs>
			<clipPath id="SVGID_10_">
				<use xlink:href="#SVGID_9_"  style="overflow:visible;"/>
			</clipPath>
			<path class="st16" d="M84.7,190.7c52.2,40.3,104.4,80.6,156.7,80.6s104.4-4.3,156.7-6.2s104.4-3.3,156.7-5.3
				c52.2-2.1,104.4-4.6,156.7-7.1l0,0c-52.2,2.5-104.4,5-156.7,7.1c-52.2,2.1-104.4,3.4-156.7,5.3s-104.4,6.2-156.7,6.2
				S136.9,231.1,84.7,190.7z"/>
		</g>
	</g>
</g>
<g id="lines">
	<g>
		<g>
			<defs>
				<rect id="SVGID_11_" x="69" width="0" height="463"/>
			</defs>
			<clipPath id="SVGID_12_">
				<use xlink:href="#SVGID_11_"  style="overflow:visible;"/>
			</clipPath>
			<path class="st17" d="M84.7,13.5c52.2,43.9,104.4,87.7,156.7,107.2S345.8,140.1,398,150c52.2,9.9,104.4,10,156.7,30.1
				c52.2,20.1,104.4,55.2,156.7,90.4"/>
		</g>
	</g>
	<g>
		<g>
			<defs>
				<rect id="SVGID_13_" x="69" width="0" height="463"/>
			</defs>
			<clipPath id="SVGID_14_">
				<use xlink:href="#SVGID_13_"  style="overflow:visible;"/>
			</clipPath>
			<path class="st18" d="M84.7,229.7c52.2-11.7,104.4-23.5,156.7-32.8s104.4-15.6,156.7-23s104.4-15.5,156.7-21.5
				c52.2-6.1,104.4-10.4,156.7-14.8"/>
		</g>
	</g>
</g>
<g id="data-points">
	<g transform="translate(69,10)">
		<path id="point-0-0" class="st19" d="M15.7,3.5h47V443h-47V3.5z"/>
		<path id="point-0-1" class="st19" d="M172.3,110.8h47V443h-47V110.8z"/>
		<path id="point-0-2" class="st19" d="M329,140h47v303h-47V140z"/>
		<path id="point-0-3" class="st19" d="M485.7,170.1h47V443h-47V170.1z"/>
		<path id="point-0-4" class="st19" d="M642.3,260.5h47V443h-47V260.5z"/>
	</g>
	<g transform="translate(69,10)">
		<path id="point-1-0" class="st20" d="M62.7,219.7h47V443h-47V219.7z"/>
		<path id="point-1-1" class="st20" d="M219.3,186.9h47V443h-47V186.9z"/>
		<path id="point-1-2" class="st20" d="M376,163.9h47V443h-47V163.9z"/>
		<path id="point-1-3" class="st20" d="M532.7,142.4h47V443h-47V142.4z"/>
		<path id="point-1-4" class="st20" d="M689.3,127.6h47V443h-47V127.6z"/>
	</g>
	<g transform="translate(69,10)">
		<path id="point-2-0" class="st21" d="M109.7,180.7h47V443h-47V180.7z"/>
		<path id="point-2-1" class="st21" d="M266.3,261.4h47V443h-47V261.4z"/>
		<path id="point-2-2" class="st21" d="M423,255.2h47V443h-47V255.2z"/>
		<path id="point-2-3" class="st21" d="M579.7,249.8h47V443h-47V249.8z"/>
		<path id="point-2-4" class="st21" d="M736.3,242.8h47V443h-47V242.8z"/>
	</g>
</g>
<g id="data-labels">
</g>
<g>
	<g transform="translate(69, 10)">
	</g>
</g>
</svg>
